<?xml version="1.0" standalone="no"?>
<!DOCTYPE svg PUBLIC "-//W3C//DTD SVG 20010904//EN"
 "http://www.w3.org/TR/2001/REC-SVG-20010904/DTD/svg10.dtd">
<svg version="1.0" xmlns="http://www.w3.org/2000/svg"
 width="512.000000pt" height="512.000000pt" viewBox="0 0 512.000000 512.000000"
 preserveAspectRatio="xMidYMid meet">
<metadata>
Created by potrace 1.14, written by Peter Selinger 2001-2017
</metadata>
<g transform="translate(0.000000,512.000000) scale(0.100000,-0.100000)"
fill="#000000" stroke="none">
<path d="M0 2560 l0 -2560 2560 0 2560 0 0 2560 0 2560 -2560 0 -2560 0 0
-2560z m3440 1801 c60 -47 66 -70 74 -273 4 -101 9 -184 10 -186 2 -1 142 1
312 6 170 5 313 6 317 2 6 -5 76 -2390 77 -2616 l0 -41 -47 -6 c-54 -7 -3153
-91 -3158 -85 -3 3 -64 2230 -68 2505 -1 83 1 154 4 158 5 4 434 22 612 25 16
0 17 16 17 190 0 209 4 226 60 273 85 72 221 30 248 -75 6 -24 13 -116 15
-206 3 -89 7 -165 10 -169 7 -6 1179 25 1237 34 l35 5 -3 171 c-4 194 3 229
50 274 62 58 134 63 198 14z"/>
<path d="M2535 3533 c-681 -18 -1241 -36 -1243 -38 -7 -7 48 -1979 56 -1986 6
-5 2334 53 2489 63 l53 3 0 90 c0 129 -39 1658 -46 1793 l-6 112 -31 -1 c-18
-1 -590 -17 -1272 -36z m602 -615 c51 -51 93 -96 93 -100 0 -14 -724 -803
-736 -803 -13 0 -554 522 -554 533 0 4 43 52 95 107 l94 99 177 -174 177 -174
36 42 c74 84 516 562 521 562 2 0 46 -42 97 -92z"/>
</g>
</svg>
