<svg width="24" height="24" viewBox="0 0 24 24" fill="none" xmlns="http://www.w3.org/2000/svg">
<path d="M18.1111 12.9813C18.1111 12.304 18.3687 11.6545 18.8271 11.1756C19.2855 10.6968 19.9072 10.4277 20.5556 10.4277C21.2039 10.4277 21.8256 10.6968 22.284 11.1756C22.7425 11.6545 23 12.304 23 12.9813V18.0883M20.5556 20.6418H3.44444C2.79614 20.6418 2.17438 20.3728 1.71596 19.8939C1.25754 19.415 1 18.7655 1 18.0883V12.9813C1 12.304 1.25754 11.6545 1.71596 11.1756C2.17438 10.6968 2.79614 10.4277 3.44444 10.4277C4.09275 10.4277 4.71451 10.6968 5.17293 11.1756C5.63135 11.6545 5.88889 12.304 5.88889 12.9813V15.5348H15.7107" stroke="#054871" stroke-width="2" stroke-linecap="round" stroke-linejoin="round"/>
<path d="M3.35694 10.4284V4.53565C3.35651 4.18007 3.41229 3.82645 3.52238 3.48675M5.97572 1.15322C6.32751 1.05101 6.69329 0.999371 7.06102 1.00001H16.9386C17.9209 1.00001 18.8631 1.37251 19.5577 2.03557C20.2524 2.69864 20.6426 3.59794 20.6426 4.53565V10.4284" stroke="#054871" stroke-width="2" stroke-linecap="round" stroke-linejoin="round"/>
<path d="M4.92896 20.6426V22.9997" stroke="#054871" stroke-width="2" stroke-linecap="round" stroke-linejoin="round"/>
<path d="M19.071 20.6426V22.9997" stroke="#054871" stroke-width="2" stroke-linecap="round" stroke-linejoin="round"/>
<path d="M1 1L23 22.9996" stroke="#054871" stroke-width="2" stroke-linecap="round" stroke-linejoin="round"/>
</svg>
